<svg width="48" height="48" viewBox="0 0 48 48" fill="none" xmlns="http://www.w3.org/2000/svg">
<path d="M0 12C0 5.37258 5.37258 0 12 0H36C42.6274 0 48 5.37258 48 12V36C48 42.6274 42.6274 48 36 48H12C5.37258 48 0 42.6274 0 36V12Z" fill="#1868DB"/>
<path d="M28.4424 31.1819L25.7602 28.4996C25.4199 28.1593 25.367 27.622 25.6742 27.2516C27.08 25.5568 29.1658 24.1483 30.1298 23.6084L38.8688 26.3475C35.6959 26.4382 31.8994 29.2264 29.9599 31.1541C29.5428 31.5686 28.8582 31.5977 28.4424 31.1819Z" fill="#B7D1FF" stroke="#B7D1FF"/>
<path d="M26.0508 9H22.4905C21.9011 9 21.4378 9.5099 21.5197 10.0936C23.1465 21.6821 32.4962 25.675 37.9467 26.379C38.5165 26.4526 39 25.9944 39 25.4198V21.844C39 21.3566 38.6476 20.943 38.1711 20.8402C30.4133 19.1656 27.6582 13.4062 27.1026 9.94163C27.0183 9.41622 26.5829 9 26.0508 9Z" fill="white" stroke="white"/>
<path d="M19.5571 16.5573L22.2393 19.2397C22.5796 19.5799 22.6325 20.1172 22.3253 20.4876C20.9195 22.1825 18.8337 23.591 17.8697 24.1309L9.13073 21.3917C12.3037 21.3011 16.1001 18.5128 18.0396 16.5852C18.4567 16.1707 19.1413 16.1415 19.5571 16.5573Z" fill="#B7D1FF" stroke="#B7D1FF"/>
<path d="M21.9492 38.7393L25.5095 38.7393C26.0989 38.7393 26.5622 38.2294 26.4803 37.6456C24.8535 26.0572 15.5039 22.0643 10.0533 21.3602C9.48346 21.2866 8.99997 21.7449 8.99997 22.3195L8.99997 25.8953C8.99997 26.3827 9.35244 26.7962 9.82891 26.8991C17.5867 28.5737 20.3418 34.3331 20.8974 37.7976C20.9817 38.323 21.4171 38.7393 21.9492 38.7393Z" fill="white" stroke="white"/>
</svg>
