<svg width="49" height="49" viewBox="0 0 49 49" fill="none" xmlns="http://www.w3.org/2000/svg">
<path d="M32.0737 36.4562L26.9653 31.3478C26.625 31.0076 26.5727 30.4713 26.868 30.0913C29.1091 27.208 32.6934 24.7787 34.3089 23.874L48.2915 28.2566C42.9503 28.4092 36.5048 33.3393 33.5769 36.4169C33.1716 36.843 32.4895 36.872 32.0737 36.4562Z" fill="#1D7AFC" stroke="#1D7AFC"/>
<path d="M28.3507 0.5H21.4251C20.8357 0.5 20.3739 1.01677 20.4458 1.60181C22.8446 21.1082 38.7439 27.4783 47.4498 28.3803C48.0214 28.4396 48.5001 27.9813 48.5001 27.4067V20.544C48.5001 20.0565 48.1424 19.6408 47.6643 19.5459C34.4384 16.9191 30.0648 6.97069 29.3838 1.44262C29.3187 0.914489 28.8828 0.5 28.3507 0.5Z" fill="#0055CC" stroke="#0055CC"/>
<path d="M16.9263 12.1268L22.0347 17.2352C22.375 17.5755 22.4273 18.1117 22.132 18.4917C19.8909 21.375 16.3066 23.8043 14.6911 24.709L0.708538 20.3264C6.04972 20.1738 12.4952 15.2437 15.4231 12.1661C15.8284 11.7401 16.5105 11.711 16.9263 12.1268Z" fill="#1D7AFC" stroke="#1D7AFC"/>
<path d="M20.6493 48.083L27.5749 48.083C28.1643 48.083 28.6261 47.5662 28.5542 46.9812C26.1554 27.4748 10.2561 21.1047 1.55016 20.2027C0.9786 20.1435 0.499917 20.6017 0.499917 21.1763L0.499916 28.039C0.499916 28.5265 0.857633 28.9422 1.33574 29.0371C14.5616 31.6639 18.9352 41.6123 19.6162 47.1404C19.6813 47.6685 20.1172 48.083 20.6493 48.083Z" fill="#0055CC" stroke="#0055CC"/>
</svg>
