<svg width="74" height="74" viewBox="0 0 74 74" fill="none" xmlns="http://www.w3.org/2000/svg">
<path d="M73.0408 36.5204C73.0408 54.7492 59.6852 69.8581 42.2267 72.5972V47.0771H50.7363L52.3554 36.5204H42.2267V29.67C42.2267 26.7812 43.6419 23.9665 48.1784 23.9665H52.7834V14.9791C52.7834 14.9791 48.6035 14.2658 44.6077 14.2658C36.2665 14.2658 30.8141 19.3216 30.8141 28.4745V36.5204H21.5413V47.0771H30.8141V72.5972C13.3556 69.8581 0 54.7492 0 36.5204C0 16.3514 16.3514 0 36.5204 0C56.6894 0 73.0408 16.3514 73.0408 36.5204Z" fill="#1877F2"/>
<path d="M50.7359 47.0769L52.3551 36.5203H42.2264V29.6697C42.2264 26.7816 43.6413 23.9664 48.1779 23.9664H52.7831V14.9789C52.7831 14.9789 48.6038 14.2656 44.6081 14.2656C36.266 14.2656 30.8138 19.3214 30.8138 28.4743V36.5203H21.541V47.0769H30.8138V72.5969C32.6732 72.8886 34.5788 73.0407 36.5201 73.0407C38.4614 73.0407 40.367 72.8886 42.2264 72.5969V47.0769H50.7359Z" fill="white"/>
</svg>
